<svg width="46" height="46" viewBox="0 0 46 46" fill="none" xmlns="http://www.w3.org/2000/svg">
<path fill-rule="evenodd" clip-rule="evenodd" d="M9.91654 25.778C19.4109 25.778 19.8332 28.998 19.8332 35.6947C19.8332 39.05 19.8332 41.437 18.4239 43.1847C16.8022 45.1983 13.8505 45.6113 9.91654 45.6113C5.98254 45.6113 3.03088 45.1983 1.40921 43.1847C-0.00012207 41.437 -0.00012207 39.0523 -0.00012207 35.753L1.74988 35.6947H-0.00012207C-0.00012207 28.998 0.422212 25.778 9.91654 25.778ZM35.5832 25.778C45.0775 25.778 45.4999 28.998 45.4999 35.6947C45.4999 39.05 45.4999 41.437 44.0905 43.1847C42.4689 45.1983 39.5172 45.6113 35.5832 45.6113C31.6492 45.6113 28.6975 45.1983 27.0759 43.1847C25.6665 41.437 25.6665 39.0523 25.6665 35.753L27.4165 35.6947H25.6665C25.6665 28.998 26.0889 25.778 35.5832 25.778ZM10.3976 29.279L9.91654 29.278C3.82894 29.278 3.51675 29.7148 3.50074 34.8244L3.50172 36.8151C3.51278 38.8473 3.59021 40.3153 4.13221 40.9913C4.75054 41.7567 6.58688 42.1113 9.91654 42.1113C13.2462 42.1113 15.0825 41.7543 15.7009 40.989C16.3332 40.2027 16.3332 38.336 16.3332 35.7507C16.3332 29.9168 16.3332 29.3065 10.3976 29.279ZM36.0643 29.279L35.5832 29.278C29.4956 29.278 29.1834 29.7148 29.1674 34.8244L29.1684 36.8151C29.1794 38.8473 29.2569 40.3153 29.7989 40.9913C30.4172 41.7567 32.2535 42.1113 35.5832 42.1113C38.9129 42.1113 40.7492 41.7543 41.3675 40.989C41.9999 40.2027 41.9999 38.336 41.9999 35.7507C41.9999 29.9168 41.9999 29.3065 36.0643 29.279ZM9.91654 0.111328C19.4109 0.111328 19.8332 3.33133 19.8332 10.028C19.8332 13.3833 19.8332 15.7703 18.4239 17.518C16.8022 19.5317 13.8505 19.9447 9.91654 19.9447C5.98254 19.9447 3.03088 19.5317 1.40921 17.518C-0.00012207 15.7703 -0.00012207 13.3857 -0.00012207 10.0863L1.74988 10.028H-0.00012207C-0.00012207 3.33133 0.422212 0.111328 9.91654 0.111328ZM35.5832 0.111328C45.0775 0.111328 45.4999 3.33133 45.4999 10.028C45.4999 13.3833 45.4999 15.7703 44.0905 17.518C42.4689 19.5317 39.5172 19.9447 35.5832 19.9447C31.6492 19.9447 28.6975 19.5317 27.0759 17.518C25.6665 15.7703 25.6665 13.3857 25.6665 10.0863L27.4165 10.028H25.6665C25.6665 3.33133 26.0889 0.111328 35.5832 0.111328ZM10.3976 3.61237L9.91654 3.61133C3.82894 3.61133 3.51675 4.04816 3.50074 9.15778L3.50172 11.1484C3.51278 13.1807 3.59021 14.6487 4.13221 15.3247C4.75054 16.09 6.58688 16.4447 9.91654 16.4447C13.2462 16.4447 15.0825 16.0877 15.7009 15.3223C16.3332 14.536 16.3332 12.6693 16.3332 10.084C16.3332 4.25018 16.3332 3.63983 10.3976 3.61237ZM36.0643 3.61237L35.5832 3.61133C29.4956 3.61133 29.1834 4.04816 29.1674 9.15778L29.1684 11.1484C29.1794 13.1807 29.2569 14.6487 29.7989 15.3247C30.4172 16.09 32.2535 16.4447 35.5832 16.4447C38.9129 16.4447 40.7492 16.0877 41.3675 15.3223C41.9999 14.536 41.9999 12.6693 41.9999 10.084C41.9999 4.25018 41.9999 3.63983 36.0643 3.61237Z" fill="white"/>
</svg>
