<svg width="67" height="23" viewBox="0 0 67 23" fill="none" xmlns="http://www.w3.org/2000/svg">
<g opacity="0.35">
<path d="M25.1907 6.28712C26.003 6.28888 26.8147 6.28305 27.6271 6.29003C27.6229 8.64209 27.6241 10.9941 27.6259 13.3462C28.604 13.3456 29.5815 13.3468 30.5595 13.3456V15.4436C28.771 15.4448 26.9822 15.4413 25.1935 15.4454C25.1871 12.3926 25.193 9.33987 25.1907 6.28712Z" fill="white"/>
<path d="M40.2541 6.28381C41.0653 6.28728 41.8758 6.28496 42.6864 6.28496C42.687 8.63819 42.6864 10.9914 42.687 13.344C43.6657 13.3469 44.6443 13.3399 45.6231 13.3475C45.619 14.0458 45.622 14.7436 45.622 15.4414C43.8321 15.4421 42.0422 15.4426 40.2523 15.4414C40.2546 12.3888 40.2506 9.33655 40.2541 6.28381Z" fill="white"/>
<path d="M33.8683 8.02153C34.4571 7.91044 35.0866 7.92666 35.6475 8.1494C36.0381 8.30391 36.3679 8.56831 36.6864 8.83276C36.691 8.58628 36.687 8.3398 36.6917 8.09328C37.4379 8.09733 38.1848 8.09387 38.9312 8.09503C38.9287 10.5408 38.9359 12.9872 38.9282 15.4336C38.1677 15.4573 37.4054 15.437 36.6445 15.4428C36.6445 15.2148 36.6457 14.9868 36.6438 14.7594C36.0452 15.2952 35.2505 15.6291 34.434 15.6187C33.4836 15.6355 32.5084 15.2796 31.8754 14.5697C31.2141 13.8412 30.9421 12.8448 30.9362 11.8861C30.9161 11.046 31.1652 10.1995 31.6501 9.50511C32.1617 8.75982 32.9633 8.19568 33.8683 8.02153ZM34.5792 10.0663C34.0517 10.1699 33.5951 10.5443 33.3881 11.0297C33.0494 11.8276 33.2838 12.8882 34.0482 13.369C34.7521 13.8053 35.7572 13.63 36.3018 13.0236C36.9689 12.3113 36.8905 11.0673 36.146 10.4361C35.7266 10.0704 35.1214 9.94481 34.5792 10.0663Z" fill="white"/>
<path d="M51.1736 8.60561C51.8545 8.05246 52.7848 7.8592 53.6479 7.99575C54.2938 8.08079 54.8573 8.44823 55.302 8.89952C55.3067 8.63162 55.3043 8.36375 55.3043 8.09584C56.0276 8.09524 56.7503 8.09293 57.4736 8.097C57.4718 10.2859 57.4736 12.4742 57.4729 14.6631C57.4617 15.4876 57.1738 16.3266 56.5822 16.9247C55.8973 17.6302 54.8996 17.9652 53.9244 18.0108C52.9223 18.059 51.8674 17.8484 51.0557 17.2436C50.4688 16.8178 50.0669 16.1547 49.9766 15.443C50.818 15.4476 51.6604 15.4361 52.5015 15.4482C52.6514 15.6178 52.7806 15.8197 52.9942 15.9204C53.2992 16.0679 53.6549 16.0552 53.9859 16.0268C54.4112 15.9799 54.8666 15.796 55.079 15.4089C55.2636 15.0901 55.1834 14.7128 55.2047 14.3645C54.5841 14.8719 53.7953 15.2295 52.9747 15.1988C52.186 15.1884 51.4049 14.8656 50.8597 14.3043C50.1189 13.5666 49.7984 12.5007 49.8339 11.4819C49.8641 10.4033 50.3023 9.29474 51.1736 8.60561ZM53.2998 9.89417C52.7329 9.98036 52.2868 10.4375 52.1347 10.9669C51.9458 11.6051 52.0213 12.3706 52.4975 12.8729C53.0809 13.507 54.1953 13.4526 54.7906 12.8625C55.4601 12.2324 55.4802 11.0977 54.9062 10.4028C54.5239 9.94622 53.8732 9.80621 53.2998 9.89417Z" fill="white"/>
<path d="M60.0764 8.55687C60.8338 8.03209 61.816 7.83304 62.7241 8.02511C63.275 8.14083 63.7446 8.46832 64.1592 8.82879C64.1557 8.58463 64.1564 8.33986 64.1564 8.0957C64.9084 8.0957 65.6612 8.08992 66.4134 8.09861V15.4406C65.6511 15.4452 64.8883 15.4429 64.1262 15.4418C64.1274 15.2132 64.1274 14.9846 64.1257 14.7567C63.8726 14.9679 63.6048 15.1675 63.3016 15.3058C62.5075 15.6946 61.5613 15.7004 60.7253 15.4429C59.9702 15.2074 59.3218 14.6774 58.9401 13.9975C58.4865 13.2031 58.3602 12.2646 58.4362 11.3672C58.5496 10.262 59.1419 9.19681 60.0764 8.55687ZM62.0261 10.074C61.4102 10.203 60.9094 10.7105 60.7725 11.3099C60.5985 12.043 60.8378 12.9115 61.4928 13.3477C62.2361 13.8344 63.3381 13.6174 63.8679 12.9213C64.427 12.2096 64.3374 11.0883 63.6684 10.4732C63.2378 10.0757 62.5954 9.93337 62.0261 10.074Z" fill="white"/>
<path d="M47.3986 4.93415C48.0658 4.74496 48.841 5.12913 49.0576 5.78182C49.2398 6.28928 49.0788 6.89855 48.6606 7.24858C48.2606 7.60097 47.6435 7.69294 47.1579 7.46499C46.6218 7.22428 46.3109 6.61386 46.407 6.04798C46.4725 5.52665 46.8796 5.06663 47.3986 4.93415ZM46.6129 8.09624C47.3656 8.09163 48.1177 8.09624 48.8705 8.09393C48.8716 10.5437 48.8716 12.9936 48.8705 15.4434C48.1177 15.4417 47.3656 15.4457 46.6129 15.4411C46.6158 12.993 46.6152 10.5443 46.6129 8.09624Z" fill="white"/>
<path d="M8.71981 9.67017C9.12332 9.14248 9.68258 8.73111 10.3233 8.52454C10.2342 8.61826 10.1433 8.71026 10.0554 8.80459C10.4324 8.75077 10.8188 8.80169 11.1721 8.93942C11.2105 9.26923 11.2435 9.59964 11.2913 9.92768C11.3756 9.60481 11.3821 9.26747 11.4288 8.93827C11.7839 8.7971 12.1721 8.75485 12.552 8.80288C12.4553 8.7074 12.3567 8.61424 12.2582 8.52112C12.8977 8.72593 13.4746 9.12516 13.8628 9.66675C13.7508 9.61119 13.638 9.55742 13.5248 9.50476C13.6687 9.83632 13.7767 10.1962 13.7336 10.5602C13.4422 10.7372 13.0959 10.8153 12.8157 11.0126C13.1472 10.9547 13.4764 10.8819 13.8068 10.82C14.0581 11.1029 14.2138 11.4535 14.2917 11.8181C14.3542 11.707 14.415 11.5953 14.4716 11.4813C14.4752 12.1444 14.2386 12.7861 13.8622 13.3312C13.8817 13.205 13.8994 13.0789 13.9153 12.9528C13.6357 13.194 13.3118 13.3891 12.949 13.4811C12.7054 13.2409 12.4901 12.9742 12.2387 12.7427C12.3543 13.0639 12.5974 13.3283 12.7101 13.6477C12.5202 13.9613 12.2263 14.1956 11.9119 14.3825C12.0323 14.4062 12.1532 14.4282 12.2736 14.4531C11.9609 14.5364 11.64 14.5885 11.3161 14.6024C10.9751 14.5966 10.6401 14.5289 10.3085 14.4571C10.433 14.4369 10.5545 14.4051 10.6766 14.3756C10.3557 14.1898 10.0714 13.941 9.8743 13.6286C10.0395 13.3306 10.2241 13.043 10.3763 12.7387C10.1115 12.9591 9.89789 13.2322 9.66016 13.4793C9.28849 13.4018 8.97408 13.1871 8.6803 12.9632C8.70036 13.0847 8.72334 13.2062 8.74872 13.3271C8.35228 12.7977 8.12693 12.1462 8.12636 11.4889C8.1889 11.5971 8.24612 11.7082 8.30749 11.8176C8.38478 11.4507 8.5399 11.0978 8.79535 10.8166C9.12807 10.8808 9.45783 10.9635 9.79409 11.0081C9.49853 10.8333 9.17229 10.7176 8.8626 10.5712C8.83133 10.2027 8.92453 9.83813 9.07439 9.50254C8.9552 9.55678 8.8384 9.6146 8.71981 9.67017ZM9.88791 11.0293C10.0607 11.5801 10.2454 12.1269 10.4306 12.6737C11.0117 12.6714 11.5922 12.6737 12.1733 12.6726C12.3526 12.1264 12.5338 11.5807 12.7166 11.0351C12.25 10.692 11.7716 10.3645 11.3037 10.0231C10.8283 10.3535 10.3599 10.6949 9.88791 11.0293Z" fill="white"/>
<path d="M10.2846 1.17957H10.5377C10.7825 2.39463 10.9996 3.61492 11.2385 4.83118C11.2833 5.02906 11.3093 5.23102 11.3123 5.43408C9.92945 5.65394 8.65878 6.486 7.95617 7.67966C7.91195 7.80176 7.77329 7.84167 7.6677 7.76125C6.51674 7.11263 5.3729 6.45125 4.22251 5.80093C4.15289 5.74656 4.0166 5.70023 4.06794 5.58974C4.12931 5.41559 4.24728 5.26802 4.34636 5.11355C5.0543 4.0408 6.00467 3.12488 7.10312 2.43921C8.0706 1.82528 9.16317 1.42373 10.2846 1.17957Z" fill="white"/>
<path d="M12.1132 2.20963C14.3779 1.99785 16.7122 2.64761 18.5198 4.00333C18.6933 4.14103 18.8873 4.26026 19.0307 4.42977C19.1067 4.52063 19.0005 4.61028 18.9488 4.67971C18.1546 5.57656 17.3629 6.47512 16.5707 7.37258C16.4686 7.48312 16.3813 7.60866 16.2621 7.7018C16.1465 7.76368 16.0622 7.65376 15.9772 7.59476C15.0829 6.85589 13.8948 6.47634 12.7291 6.53593C12.5315 6.5423 12.3374 6.58797 12.1397 6.58335C12.0772 6.52147 12.0571 6.43698 12.0447 6.35424C11.8754 5.2057 11.6996 4.05835 11.5273 2.91035C11.5014 2.72055 11.4542 2.5308 11.4648 2.33869C11.6536 2.21544 11.8978 2.24611 12.1132 2.20963Z" fill="white"/>
<path d="M10.8154 8.11149C11.7522 7.97434 12.7409 8.24631 13.476 8.83129C14.1763 9.38097 14.6482 10.2072 14.7449 11.0832C14.8399 11.8395 14.6653 12.6264 14.2541 13.2732C13.7951 14.0075 13.0418 14.5589 12.1923 14.7776C11.4342 14.9732 10.6065 14.9153 9.8898 14.6C9.11051 14.2621 8.46747 13.6343 8.12236 12.8699C7.72418 11.9956 7.72592 10.9541 8.1306 10.0816C8.60377 9.03203 9.65384 8.25901 10.8154 8.11149ZM8.7182 9.66965C8.83679 9.61409 8.95359 9.55626 9.07274 9.50185C8.92289 9.83742 8.82968 10.202 8.86095 10.5705C9.17066 10.7169 9.49688 10.8326 9.79245 11.0074C9.45619 10.9628 9.12644 10.8801 8.7937 10.8159C8.53826 11.0971 8.38312 11.45 8.30584 11.8169C8.24448 11.7075 8.18726 11.5964 8.12472 11.4882C8.12532 12.1455 8.35068 12.797 8.74708 13.3265C8.72169 13.2055 8.69871 13.084 8.67864 12.9625C8.97242 13.1865 9.28688 13.4011 9.65852 13.4786C9.89625 13.2315 10.1098 12.9584 10.3747 12.738C10.2225 13.0423 10.0378 13.3299 9.87265 13.6279C10.0697 13.9403 10.354 14.1891 10.675 14.3749C10.5528 14.4044 10.4313 14.4362 10.3069 14.4564C10.6384 14.5282 10.9735 14.5959 11.3145 14.6017C11.6383 14.5878 11.9592 14.5357 12.2719 14.4524C12.1516 14.4275 12.0307 14.4055 11.9103 14.3818C12.2247 14.1949 12.5185 13.9606 12.7084 13.647C12.5957 13.3276 12.3527 13.0632 12.2371 12.742C12.4884 12.9735 12.7037 13.2402 12.9474 13.4804C13.3102 13.3883 13.634 13.1934 13.9137 12.9521C13.8977 13.0782 13.88 13.2043 13.8606 13.3305C14.237 12.7854 14.4735 12.1437 14.47 11.4806C14.4133 11.5946 14.3526 11.7063 14.29 11.8174C14.2122 11.4528 14.0564 11.1022 13.8051 10.8193C13.4747 10.8812 13.1456 10.9541 12.814 11.0119C13.0942 10.8147 13.4405 10.7365 13.732 10.5594C13.775 10.1955 13.6671 9.83563 13.5231 9.50407C13.6364 9.55672 13.7491 9.61053 13.8612 9.66606C13.473 9.12445 12.8961 8.72522 12.2566 8.52041C12.3551 8.61359 12.4536 8.70671 12.5503 8.80219C12.1704 8.75414 11.7823 8.79641 11.4271 8.93758C11.3805 9.26678 11.3741 9.60412 11.2896 9.92699C11.2418 9.59894 11.2088 9.26853 11.1705 8.93873C10.8171 8.80103 10.4307 8.75008 10.0538 8.8039C10.1417 8.70957 10.2325 8.6176 10.3216 8.52384C9.68098 8.73058 9.12171 9.14197 8.7182 9.66965Z" fill="white"/>
<path d="M9.87988 11.0291C10.3518 10.6947 10.8202 10.3533 11.2957 10.0229C11.7635 10.3644 12.2419 10.6918 12.7086 11.035C12.5257 11.5806 12.3446 12.1262 12.1653 12.6725C11.5842 12.6736 11.0037 12.6713 10.4226 12.6736C10.2374 12.1268 10.0528 11.58 9.87988 11.0291Z" fill="white"/>
<path d="M2.55409 5.71193C2.62488 5.66856 2.69745 5.73452 2.76174 5.75882C3.9363 6.37967 5.11259 6.99647 6.28775 7.61558C6.40634 7.66071 6.45352 7.79378 6.36919 7.89332C5.72088 9.06617 5.64001 10.5156 6.1403 11.755C6.20991 11.8603 6.10549 11.9575 6.00519 11.9881C4.88489 12.4134 3.76346 12.8352 2.6426 13.2599C2.46796 13.323 2.29865 13.4046 2.1164 13.4457C2.06035 13.4214 2.02024 13.3826 1.99607 13.3288C1.02741 10.927 1.20087 8.11787 2.44088 5.84103C2.465 5.78427 2.50277 5.74144 2.55409 5.71193Z" fill="white"/>
<path d="M18.7138 5.9533C18.8541 5.87056 18.9734 6.04586 19.0677 6.12688C20.9189 7.91075 21.9355 10.4919 21.7732 13.0326C21.7531 13.0586 21.713 13.1096 21.6929 13.135C20.3573 13.0928 19.0218 13.0077 17.6862 12.955C17.5753 12.9406 17.4277 12.9649 17.3517 12.8648C17.3327 12.6738 17.3505 12.4823 17.3411 12.2914C17.2826 11.1116 16.7393 9.96248 15.8574 9.15818C15.7441 9.07832 15.8025 8.93255 15.8904 8.8602C16.8354 7.89514 17.761 6.91033 18.7138 5.9533Z" fill="white"/>
<path d="M4.9306 12.9593C5.02497 12.9287 5.13296 12.8586 5.23026 12.9171C5.27689 12.9767 5.30811 13.0461 5.34235 13.1138C5.82371 14.1571 6.7269 15.0036 7.80292 15.4439C7.98109 15.522 8.17518 15.5608 8.34745 15.6516C8.38169 15.7454 8.34979 15.8438 8.32323 15.9352C7.91502 17.2082 7.51325 18.4828 7.10738 19.7564C7.0348 19.7708 6.96346 19.7702 6.89206 19.7546C4.415 19.0127 2.3113 17.1756 1.26122 14.8548C1.22053 14.7553 1.22698 14.6454 1.217 14.5406C2.45173 14.0072 3.69472 13.491 4.9306 12.9593Z" fill="white"/>
<path d="M16.046 13.449C16.1499 13.3894 16.2714 13.4149 16.3841 13.4195C17.6908 13.526 18.9992 13.6168 20.3053 13.7239C20.4085 13.7158 20.4677 13.8193 20.4492 13.9101C20.2677 16.4688 18.8906 18.9122 16.791 20.4374C16.7174 20.4849 16.6365 20.5179 16.5581 20.5549C15.757 19.5117 14.9836 18.4483 14.1883 17.4003C14.117 17.3014 14.0332 17.2053 14.002 17.0862C14.0214 17.0114 14.0958 16.9733 14.1495 16.9253C15.0998 16.2345 15.7553 15.1733 15.9599 14.0328C15.9976 13.8396 16.0018 13.6411 16.046 13.449Z" fill="white"/>
<path d="M12.6143 16.3882C12.6986 16.3107 12.8172 16.3379 12.8727 16.4333C13.5812 17.4582 14.2802 18.4897 14.987 19.5162C15.0636 19.6279 15.1451 19.7384 15.2023 19.8628C15.1462 20.0115 14.9852 20.0728 14.8619 20.1567C13.6531 20.9013 12.2662 21.3649 10.845 21.495C10.2587 21.4858 9.67048 21.4787 9.08466 21.5037C8.57556 21.4376 8.06584 21.3608 7.57031 21.2254C7.48715 21.2103 7.42931 21.1483 7.36739 21.0987C7.74965 19.7807 8.11011 18.4562 8.48825 17.137C8.50416 17.0253 8.62337 16.9617 8.72598 17.0136C10.0339 17.3781 11.4893 17.1311 12.6143 16.3882Z" fill="white"/>
</g>
</svg>
