<svg width="55" height="56" viewBox="0 0 55 56" fill="none" xmlns="http://www.w3.org/2000/svg">
<path fill-rule="evenodd" clip-rule="evenodd" d="M33.3358 2.9104L35.3458 4.92037C36.1239 5.69301 37.1633 6.12195 38.2686 6.12195H41.0952C45.6624 6.12195 49.3771 9.83669 49.3771 14.4038V17.2277C49.3771 18.3303 49.806 19.3724 50.5842 20.156L52.5584 22.133C54.1229 23.6865 54.9918 25.7625 55.0001 27.9759C55.0083 30.1894 54.1532 32.2708 52.5941 33.8409L50.5787 35.8508C49.806 36.629 49.3771 37.6656 49.3771 38.7709V41.6003C49.3771 46.1647 45.6624 49.8794 41.098 49.8794H38.2631C37.1743 49.8794 36.1102 50.3193 35.3375 51.0865L33.3633 53.0607C31.7493 54.6857 29.6211 55.4996 27.4929 55.4996C25.3839 55.4996 23.2749 54.7022 21.6609 53.102C21.6389 53.08 21.6169 53.058 21.5949 53.0332L19.6427 51.0837C18.8646 50.3111 17.8252 49.8822 16.7199 49.8794H13.8987C9.33163 49.8794 5.61964 46.1647 5.61964 41.6003V38.7654C5.61964 37.6601 5.18795 36.6235 4.41256 35.8426L2.43558 33.8684C-0.775977 30.6733 -0.814472 25.471 2.33934 22.2265L2.41358 22.1522L4.41531 20.145C5.18795 19.3669 5.61964 18.3248 5.61964 17.2222V14.4038C5.61964 9.83944 9.33162 6.1247 13.896 6.12195H16.7281C17.8307 6.12195 18.8701 5.69026 19.6592 4.91212L21.6252 2.94064C24.8395 -0.295659 30.094 -0.312156 33.3358 2.9104ZM24.548 5.85249L22.571 7.83497C20.9928 9.394 18.9223 10.2464 16.7281 10.2464H13.8987C11.6083 10.2491 9.74407 12.1134 9.74407 14.4038V17.2222C9.74407 19.4246 8.88894 21.4951 7.33815 23.0569L5.38592 25.0118C5.36667 25.0338 5.34743 25.0503 5.32818 25.0696C3.71415 26.6946 3.7224 29.3315 5.34743 30.9455L7.33265 32.9307C8.88894 34.4925 9.74407 36.563 9.74407 38.7654V41.6003C9.74407 43.8907 11.6056 45.755 13.8987 45.755H16.7226C18.9278 45.7577 20.9983 46.6129 22.5573 48.1664L24.5398 50.1434L24.5948 50.2039C26.217 51.7876 28.8292 51.7684 30.4405 50.1489L32.4257 48.1691C33.9655 46.6321 36.0937 45.755 38.2631 45.755H41.0952C43.3884 45.755 45.2527 43.8907 45.2527 41.6003V38.7709C45.2527 36.5685 46.105 34.498 47.6613 32.939L49.6411 30.9565C50.4467 30.1481 50.8784 29.1005 50.8756 27.9897C50.8729 26.8816 50.4357 25.8395 49.6466 25.0531L47.6641 23.0679C46.105 21.4978 45.2527 19.4301 45.2527 17.2277V14.4038C45.2527 12.1106 43.3884 10.2464 41.0952 10.2464H38.2686C36.0662 10.2464 33.9957 9.39125 32.4367 7.84322L30.4515 5.85524C28.7989 4.21922 26.162 4.22747 24.548 5.85249ZM34.3796 32.1215C35.9001 32.1215 37.1292 33.3506 37.1292 34.8712C37.1292 36.3917 35.9001 37.6208 34.3796 37.6208C32.859 37.6208 31.6162 36.3917 31.6162 34.8712C31.6162 33.3506 32.8343 32.1215 34.3548 32.1215H34.3796ZM36.0233 19.4769C36.8289 20.2825 36.8289 21.5886 36.0233 22.3942L21.8875 36.5272C21.486 36.9314 20.9581 37.1322 20.4302 37.1322C19.9023 37.1322 19.3743 36.9314 18.9729 36.5272C18.1673 35.7216 18.1673 34.4183 18.9729 33.6127L33.1059 19.4769C33.9116 18.6712 35.2176 18.6712 36.0233 19.4769ZM20.6315 18.3734C22.152 18.3734 23.3811 19.6025 23.3811 21.1231C23.3811 22.6436 22.152 23.8727 20.6315 23.8727C19.1109 23.8727 17.8681 22.6436 17.8681 21.1231C17.8681 19.6025 19.0862 18.3734 20.6067 18.3734H20.6315Z" fill="white"/>
</svg>
