<svg width="28" height="28" viewBox="0 0 28 28" fill="none" xmlns="http://www.w3.org/2000/svg">
<g opacity="0.35" clip-path="url(#clip0_1_1617)">
<path d="M2.99166 26.2558C2.99166 26.7589 2.75658 27.0271 2.11936 27.0271H0.65625V24.1936H2.06369C2.72152 24.1936 2.94836 24.4534 2.94836 24.9319C2.94836 25.2969 2.81019 25.4639 2.42044 25.5608L2.34724 25.5814L2.4122 25.5938C2.85556 25.6938 2.99167 25.8568 2.99167 26.2558H2.99166ZM1.32749 25.3794H1.92037C2.15545 25.3794 2.26166 25.2762 2.26166 25.0339C2.26166 24.7916 2.16473 24.6772 1.92037 24.6772H1.32955L1.3275 25.3794H1.32749ZM2.30599 26.1867C2.30599 25.9269 2.20288 25.8176 1.96057 25.8176H1.32955V26.5486H1.96057C2.21422 26.5465 2.30805 26.4413 2.30805 26.1857L2.306 26.1867H2.30599ZM3.45256 26.1052V24.1936H4.15885V26.0804C4.15885 26.3898 4.30114 26.5105 4.68264 26.5105C5.06414 26.5105 5.20644 26.3929 5.20644 26.0804V24.1936H5.91273V26.1011C5.91273 26.7672 5.5271 27.0713 4.68264 27.0713C3.83819 27.0713 3.45462 26.7713 3.45462 26.1042L3.45257 26.1053L3.45256 26.1052ZM9.22665 24.1978V27.0271H8.36672L7.16344 24.9804V27.026H6.50664V24.1936H7.36656L8.56779 26.2393V24.1936L9.22665 24.1977V24.1978ZM9.80817 24.1978H11.0702C12.06 24.1978 12.3199 24.604 12.3199 25.6103C12.3199 26.5889 12.0354 27.0271 11.0702 27.0271H9.80715L9.80822 24.1978H9.80817ZM11.0455 26.4868C11.4579 26.4868 11.593 26.2713 11.593 25.6103C11.593 24.9493 11.4589 24.7381 11.0455 24.7381H10.5093V26.4909L11.0455 26.4868ZM12.8334 24.1936H14.8142V24.7339H13.5397V25.3278H14.5987V25.8598H13.5397V26.4785H14.843V27.0188H12.8334V24.1936ZM15.2616 26.9157V26.3588C15.5661 26.4623 15.8856 26.5145 16.2072 26.5136C16.5318 26.5136 16.6742 26.428 16.6742 26.2042C16.6742 26.0135 16.6134 25.9567 16.3535 25.9041L15.8824 25.8072C15.3915 25.7042 15.2286 25.5072 15.2286 25.0237C15.2286 24.405 15.5936 24.1349 16.3287 24.1349C16.636 24.1321 16.9412 24.1845 17.2299 24.2895V24.8411C16.9539 24.7424 16.6631 24.6915 16.37 24.6906C16.0205 24.6906 15.9029 24.7844 15.9029 24.9999C15.9029 25.1824 15.9843 25.2349 16.2122 25.2845L16.6711 25.3814C17.2031 25.4948 17.3485 25.6731 17.3485 26.1805C17.3485 26.7857 16.9752 27.0611 16.2144 27.0611C15.8908 27.0674 15.5685 27.0183 15.2616 26.9157ZM17.8393 24.1936H18.5456V26.4826H19.7592V27.0229H17.8393V24.1936ZM20.2005 24.1936H20.9068V27.0229H20.2005V24.1936ZM23.8309 25.3866V26.925C23.5145 27.0248 23.1843 27.0742 22.8524 27.0713C21.8698 27.0713 21.4089 26.6373 21.4089 25.6062C21.4089 24.5751 21.8719 24.141 22.8524 24.141C23.1706 24.1359 23.487 24.1897 23.7856 24.2999V24.8474C23.5033 24.7508 23.2075 24.6999 22.9092 24.6968C22.3163 24.6968 22.1297 24.936 22.1297 25.6062C22.1297 26.3042 22.3245 26.5341 22.8844 26.5341C23.0079 26.5343 23.1312 26.5261 23.2536 26.5094V25.8764H22.7298V25.3897L23.8309 25.3866ZM26.1375 26.43H25.0322L24.8332 27.0229H24.1289L25.1394 24.1936H26.0405L27.0469 27.0229H26.3365L26.1375 26.43ZM25.59 24.6401L25.1776 25.9186H25.9932L25.59 24.6401Z" fill="white"/>
<path fill-rule="evenodd" clip-rule="evenodd" d="M0.70673 0.720825H27.0118V21.7653H0.70673V0.720825ZM22.2608 11.957C22.3556 11.888 22.402 11.8519 22.3876 11.7992L22.3917 11.7972C22.3258 11.5553 22.1406 11.5496 21.9682 11.5443C21.9436 11.5436 21.9194 11.5428 21.8957 11.5414C21.7912 11.5354 21.6966 11.5325 21.598 11.5295C21.4448 11.5248 21.2824 11.5199 21.0596 11.5023C20.7518 11.4828 20.4456 11.4435 20.1429 11.3847C19.9635 11.3497 19.4294 11.2197 19.4294 11.2197C18.8064 11.069 18.2314 10.8156 17.6451 10.5572C17.1569 10.3421 16.6609 10.1235 16.1226 9.9577C16.1104 9.96537 16.0905 9.98319 16.0708 10.0008C16.0508 10.0188 16.031 10.0365 16.0196 10.0433C15.8047 9.94477 15.519 9.94079 15.2872 9.93757C15.1577 9.93577 15.0449 9.93421 14.971 9.91645C14.0626 9.4834 12.952 9.35039 12.952 9.35039L12.8882 9.13592C12.8882 9.13592 10.2527 8.75441 9.67116 8.70493C9.86467 7.53876 10.4083 6.36252 10.6819 5.77049L10.6919 5.74879L11.4323 5.80241L11.5755 5.48072C11.6364 5.33739 11.7092 5.19942 11.7932 5.06829C11.8403 5.00287 11.891 4.97162 11.9339 4.94511C11.9783 4.9177 12.0146 4.89535 12.0303 4.84557C12.0444 4.80032 12.0342 4.71694 12.0212 4.61216C12.0002 4.44234 11.9723 4.21629 12.0303 4.00523C12.05 3.92379 12.076 3.8563 12.0997 3.79491C12.1416 3.68611 12.1761 3.59651 12.155 3.48247C12.0468 2.903 11.2518 2.4256 10.7115 2.4256C9.66085 2.4256 9.35977 3.31749 9.38555 3.98874C8.2761 3.62269 5.9046 3.90624 5.9046 3.90624L5.84479 4.13927C5.84479 4.13927 5.48907 4.07328 5.29729 4.27331C4.60439 5.00642 3.42895 6.5417 3.42895 6.5417C3.18768 6.54686 3.01033 6.67987 2.85361 6.90052C2.72484 7.08182 2.55987 7.14687 2.35757 7.22664C2.31365 7.24396 2.26797 7.26198 2.22052 7.28202C2.12256 7.31605 2.16175 7.50681 2.23805 7.50681C2.41231 7.52433 2.63503 7.42122 2.83505 7.31811C2.75272 7.47247 2.56313 7.60081 2.41691 7.69979C2.34336 7.74958 2.28079 7.79193 2.24836 7.82644C2.22259 7.85429 2.21743 7.87697 2.24836 7.92954C2.38447 8.14401 3.01033 8.00585 3.26604 7.82644C3.46297 7.69137 3.66919 7.50783 3.66919 7.50783C3.66919 7.50783 3.78674 7.10777 3.85685 7.05621C4.03783 6.896 4.29585 6.67672 4.58836 6.42812C4.96414 6.10876 5.39687 5.741 5.79633 5.38792C6.68716 5.46058 7.18884 5.49277 7.43161 5.50834C7.53335 5.51486 7.58961 5.51847 7.61001 5.52093L6.94497 5.78592C6.51087 6.60048 6.07266 9.39782 6.20774 9.72879C6.21895 9.72839 6.2415 9.71525 6.26822 9.69968C6.31033 9.67516 6.36276 9.64461 6.39746 9.64837C6.29435 10.0134 6.39746 11.0516 6.39746 11.0516C6.48613 12.0147 6.79958 13.2964 6.92846 13.5737L7.16768 13.6243C7.20686 13.9573 7.55433 14.8605 7.75436 15.2915C7.12999 15.3212 6.33111 16.0587 5.59192 16.7409C5.45831 16.8643 5.32663 16.9858 5.1983 17.101C4.68998 17.5579 4.16206 17.2568 4.02699 17.1753C3.88948 17.0794 3.7061 17.0819 3.57125 17.1815C3.55644 17.1948 3.54232 17.2089 3.52897 17.2237C3.52175 17.232 3.51866 17.232 3.51144 17.232H3.49906L3.48669 17.2248C3.46299 17.2094 3.42483 17.2279 3.40215 17.265L3.34955 17.3465C3.32481 17.3846 3.32481 17.4269 3.34955 17.4423L3.37843 17.4619C3.35162 17.5166 3.32791 17.5702 3.30728 17.6197L3.28357 17.6114C3.25677 17.6021 3.22377 17.6279 3.2083 17.6702L3.17634 17.7619C3.16088 17.8043 3.16911 17.8455 3.19696 17.8557L3.21862 17.864C3.14961 18.0335 3.04126 18.1576 2.93094 18.284C2.82036 18.4108 2.7078 18.5397 2.6309 18.7188L2.59894 18.7075C2.5711 18.6993 2.53914 18.725 2.52367 18.7674L2.49171 18.858C2.47727 18.9004 2.48553 18.9426 2.5113 18.9518L2.54429 18.9632C2.51885 19.0559 2.50058 19.1503 2.48964 19.2457H2.45252C2.42571 19.2446 2.39891 19.2798 2.39891 19.3241V19.421C2.39684 19.4664 2.41849 19.5045 2.44634 19.5045H2.47728V19.8386C2.48758 20.0448 2.83506 20.1448 2.93817 19.953C3.53406 18.8125 4.98973 18.2904 6.54011 17.7343C7.2351 17.4851 7.94914 17.2289 8.61327 16.9072C8.59405 16.8677 8.5772 16.8271 8.56274 16.7855C8.65864 16.7402 8.84835 16.6371 9.00611 16.5474C9.16387 16.4577 9.30101 16.3648 9.33297 16.3412C9.44034 16.2647 9.5306 16.1668 9.59796 16.0535C9.6667 15.9236 9.70214 15.7787 9.70106 15.6318C9.70389 15.4256 9.68952 15.1117 9.67522 14.7998C9.67386 14.7701 9.6725 14.7405 9.67117 14.711C9.65363 14.3315 9.62065 13.9088 9.58662 13.5995C9.62786 13.5944 9.77118 13.5531 9.77118 13.5531L9.59796 11.9931L9.05768 11.728L12.5943 11.7445C12.5943 11.7445 12.5995 11.7126 12.6428 11.5673C13.21 11.5887 13.5442 11.5939 13.8942 11.5992C14.1651 11.6033 14.4454 11.6076 14.8503 11.6198C15.0981 11.6228 15.2654 11.7316 15.4298 11.8388C15.5481 11.9156 15.6648 11.9918 15.8092 12.0271C16.3271 12.1549 16.7299 12.1412 17.1906 12.1253C17.7069 12.1076 18.2961 12.0873 19.2015 12.2611C19.2526 12.2694 19.2957 12.3038 19.3149 12.3519C19.3353 12.417 19.3474 12.5073 19.3594 12.5985C19.3749 12.7152 19.3906 12.8332 19.4242 12.9015C19.5645 13.1664 19.7572 13.1334 19.9336 13.0633L19.9562 13.1118C19.9686 13.1366 20.0099 13.1417 20.0511 13.1231L20.1388 13.0829C20.18 13.0633 20.2028 13.0282 20.1913 13.0025L20.1676 12.952L20.2924 12.8911L20.3162 12.9407C20.3264 12.9654 20.3697 12.9716 20.41 12.953L20.4986 12.9118C20.5378 12.8932 20.5626 12.8571 20.5492 12.8323L20.5274 12.7829C20.6996 12.703 20.8697 12.6254 21.0349 12.5501C21.2426 12.4554 21.4429 12.3641 21.6308 12.2756L21.6463 12.3086C21.6586 12.3344 21.7009 12.3395 21.7411 12.321L21.8287 12.2798C21.8699 12.2611 21.8937 12.2241 21.8814 12.1993L21.8638 12.1622L21.9731 12.1085L21.9916 12.1436C22.004 12.1684 22.0473 12.1725 22.0865 12.1519L22.1731 12.1086C22.2134 12.089 22.236 12.0519 22.2226 12.0271L22.203 11.989L22.2608 11.957ZM24.0878 8.19454V8.19452V8.19454ZM24.0878 8.19454C23.2808 8.19291 22.6254 8.8456 22.6237 9.6525C22.6221 10.4594 23.2747 11.115 24.0816 11.1167C24.8886 11.1183 25.5441 10.4656 25.5458 9.65868V9.65556C25.5446 8.84904 24.8902 8.19599 24.0837 8.19657L24.0878 8.19454Z" fill="white"/>
</g>
<defs>
<clipPath id="clip0_1_1617">
<rect width="28" height="28" fill="white"/>
</clipPath>
</defs>
</svg>
