<svg width="61" height="35" viewBox="0 0 61 35" fill="none" xmlns="http://www.w3.org/2000/svg">
<g opacity="0.35">
<path d="M36.8254 10.889C36.8254 7.45542 34.0282 4.60291 30.5449 4.60291C27.1143 4.60291 24.3172 7.40252 24.3172 10.889C24.3172 14.3225 27.1143 17.1222 30.5978 17.1222C31.9699 17.1222 33.2365 16.6996 34.2393 15.96L32.4976 14.2169C31.9171 14.5338 31.2837 14.7451 30.5976 14.7451C28.4865 14.7451 26.745 13.0548 26.745 10.889C26.745 8.77607 28.4337 7.03284 30.5976 7.03284C32.3393 7.03284 33.817 8.24781 34.292 9.83246H28.17L30.1226 11.8398H36.7198C36.8254 11.5228 36.8254 11.2059 36.8254 10.889Z" fill="white"/>
<path d="M35.615 17.3334C34.2428 18.4427 32.5011 19.0767 30.6013 19.0767C26.0624 19.0767 22.4209 15.4319 22.4209 10.889C22.4209 8.98737 23.0543 7.24425 24.1626 5.87084L22.3682 4.07483C20.8376 5.92361 19.9404 8.30076 19.9404 10.8892C19.9404 16.7526 24.6904 21.5597 30.6013 21.5597C33.1874 21.5597 35.5624 20.6616 37.4095 19.1297L35.615 17.3334Z" fill="white"/>
<path d="M25.5447 4.44444C26.9169 3.33515 28.6586 2.70122 30.5584 2.70122C35.0973 2.70122 38.739 6.346 38.739 10.8889C38.739 12.7905 38.1056 14.5336 36.9973 15.9071L38.739 17.6502C40.2695 15.8015 41.1667 13.4245 41.1667 10.836C41.2195 4.97259 36.4695 0.218506 30.6112 0.218506C28.0252 0.218506 25.6502 1.11656 23.803 2.64845L25.5447 4.44444Z" fill="white"/>
<path d="M10.7208 27.7152H8.87911V34.2286H10.7208V30.9104C10.7208 29.6816 11.9487 29.4356 13.0537 29.4356V27.5924C12.0714 27.5924 11.3347 27.838 10.7208 28.4526V27.7152Z" fill="white"/>
<path d="M25.8274 28.084C25.3362 27.7153 24.7223 27.5925 23.9855 27.5925C22.1438 27.5925 20.7931 29.0672 20.7931 31.0336C20.7931 32.9998 22.2666 34.4746 23.9855 34.4746C24.7223 34.4746 25.3362 34.2288 25.8274 33.9828V34.3516H27.6691V24.6431H25.8274V28.084ZM25.8274 32.0166C25.459 32.631 24.8451 32.754 24.2311 32.754C23.2489 32.754 22.5121 31.8936 22.5121 30.9105C22.5121 29.9273 23.2489 29.0671 24.2311 29.0671C24.8451 29.0671 25.3362 29.3129 25.8274 29.8045V32.0166Z" fill="white"/>
<path d="M31.1002 27.7153H29.2585V34.2287H31.1002V27.7153Z" fill="white"/>
<path d="M35.5254 31.7709L33.8065 27.7153H31.8418L34.666 34.2287H36.3851L39.209 27.7153H37.1217L35.5254 31.7709Z" fill="white"/>
<path d="M41.7852 27.7153H39.9434V34.2287H41.7852V27.7153Z" fill="white"/>
<path d="M47.0679 30.2965L45.8401 30.0507C45.2262 29.9277 45.1032 29.6819 45.1032 29.4361C45.1032 29.1903 45.4716 28.8217 46.0857 28.8217C46.6997 28.8217 47.1907 29.0673 47.3134 29.6819H49.0324C48.9096 27.8385 47.1907 27.4697 46.0857 27.4697C44.3666 27.4697 43.2615 28.3301 43.2615 29.6819C43.2615 30.9107 44.2438 31.4023 45.2262 31.6481L46.5767 31.8939C47.0679 32.0169 47.1907 32.1397 47.1907 32.3855C47.1907 32.7541 46.6995 32.9999 46.0857 32.9999C45.3488 32.9999 44.8578 32.7542 44.735 32.0169H43.0161C43.1387 33.8602 44.6122 34.4747 46.0857 34.4747C47.8046 34.4747 49.0324 33.7373 49.0324 32.2625C49.0326 31.0338 48.1731 30.5421 47.0679 30.2965Z" fill="white"/>
<path d="M52.1065 27.7153H50.2648V34.2287H52.1065V27.7153Z" fill="white"/>
<path d="M4.70458 27.5924C2.6173 27.5924 1.26665 29.0672 1.26665 31.0334C1.26665 32.9997 2.6173 34.4744 4.70458 34.4744C6.30077 34.4744 7.52859 33.6142 7.77424 32.3852H5.93251C5.68697 32.631 5.31859 32.8769 4.8274 32.8769C4.09066 32.8769 3.47676 32.5082 3.23122 31.7709H8.01978C8.01978 31.5251 8.01978 31.2793 8.01978 30.9106C8.01978 28.9442 6.54642 27.5924 4.70458 27.5924ZM3.10838 30.4188C3.35392 29.5586 3.96784 29.19 4.58185 29.19C5.31859 29.19 5.93251 29.6816 5.93251 30.4188H3.10838Z" fill="white"/>
<path d="M16.744 27.5924C14.6568 27.5924 13.3061 29.0672 13.3061 31.0334C13.3061 32.9997 14.6567 34.4744 16.8668 34.4744C18.4631 34.4744 19.5682 33.6142 19.9364 32.3852H17.9719C17.7263 32.754 17.358 32.8769 16.8668 32.8769C16.1302 32.8769 15.5162 32.5082 15.2706 31.7709H20.0592C20.0592 31.5251 20.0592 31.2793 20.0592 30.9106C19.9364 28.9442 18.5859 27.5924 16.744 27.5924ZM15.1479 30.4188C15.3934 29.5586 16.0073 29.19 16.6214 29.19C17.358 29.19 17.9719 29.6816 17.9719 30.4188H15.1479Z" fill="white"/>
<path d="M59.8298 30.9105C59.8298 28.9442 58.4793 27.5925 56.6374 27.5925C54.5501 27.5925 53.1994 29.0673 53.1994 31.0335C53.1994 32.9999 54.5499 34.4745 56.6374 34.4745C58.2336 34.4745 59.3387 33.6143 59.707 32.3855H57.7424C57.4968 32.7541 57.1286 32.8771 56.6374 32.8771C55.9006 32.8771 55.2867 32.5083 55.0411 31.7711H59.8298C59.8298 31.402 59.8298 31.1563 59.8298 30.9105ZM55.0411 30.4189C55.2867 29.5587 55.9006 29.19 56.5146 29.19C57.2514 29.19 57.8652 29.6816 57.8652 30.4189H55.0411Z" fill="white"/>
</g>
</svg>
