<svg width="28" height="29" viewBox="0 0 28 29" fill="none" xmlns="http://www.w3.org/2000/svg">
<g opacity="0.35" clip-path="url(#clip0_1_1637)">
<path d="M27.7868 1.95188V0.317383H1.04592V1.95188C1.04592 1.95188 1.04505 11.1194 1.04505 11.1742C1.03937 14.7978 2.15105 18.3367 4.23142 21.3178L0.903534 24.6134L3.23796 26.9252L6.3562 23.8372C7.10402 24.575 7.91549 25.2466 8.78136 25.8445C10.3585 26.9348 12.102 27.7674 13.9456 28.3108L14.4164 28.4495L14.8872 28.3108C18.6161 27.2151 21.8872 24.9547 24.2122 21.8669C26.5372 18.779 27.7915 15.0293 27.7878 11.1776C27.7878 11.1228 27.7868 1.95188 27.7868 1.95188Z" fill="white"/>
<path d="M6.52362 18.8105L6.37898 18.9537L6.77734 19.3482L6.6855 19.439L6.28714 19.0446L6.14253 19.1878L6.06794 19.114L6.44903 18.7366L6.52362 18.8105ZM7.14348 18.7127L6.93688 18.2534L7.06889 18.1228L7.54181 18.591L7.45573 18.6763L7.08607 18.3103L7.0838 18.3125L7.31226 18.8184L7.24798 18.8821L6.73714 18.6559L6.73481 18.6581L7.10445 19.0242L7.01837 19.1094L6.54545 18.6411L6.6786 18.5092L7.14348 18.7127Z" fill="#171717"/>
<path d="M11.5755 11.148L11.8746 12.0595L11.0916 11.4963L10.3086 12.0595L10.6075 11.148L9.82472 10.5846H10.7927L11.0916 9.67285L11.3906 10.5846H12.3585L11.5755 11.148Z" fill="#171717"/>
<path d="M7.06757 11.148L7.85051 10.5846H6.88278L6.58364 9.67285L6.28469 10.5846H5.31658L6.09972 11.148L5.80057 12.0595L6.58364 11.4963L7.36639 12.0595L7.06757 11.148Z" fill="#171717"/>
<path d="M9.13672 13.5528L8.83759 12.6411L8.53857 13.5528H7.57065L8.35353 14.1161L8.05457 15.0276L8.83759 14.4644L9.62041 15.0276L9.32151 14.1161L10.1044 13.5528H9.13672Z" fill="#171717"/>
<path d="M6.19985 7.57819L5.31207 5.57605H5.2839V8.24813C5.28448 8.25744 5.28306 8.26677 5.27973 8.27551C5.27641 8.28424 5.27126 8.29218 5.26461 8.2988C5.25797 8.30542 5.24997 8.31057 5.24117 8.31392C5.23236 8.31727 5.22295 8.31872 5.21354 8.3182H4.4175C4.40806 8.31875 4.3986 8.31731 4.38975 8.31399C4.38091 8.31067 4.37287 8.30552 4.36618 8.29891C4.35948 8.29229 4.35427 8.28434 4.35089 8.27559C4.34752 8.26684 4.34604 8.25748 4.34658 8.24813V3.64344C4.34603 3.6341 4.3475 3.62475 4.35088 3.616C4.35426 3.60727 4.35947 3.59934 4.36618 3.59274C4.37287 3.58616 4.38092 3.58105 4.38977 3.57776C4.39862 3.57449 4.40807 3.5731 4.4175 3.5737H5.25579C5.2797 3.57125 5.30375 3.57678 5.32413 3.58941C5.34451 3.60205 5.36003 3.62107 5.36824 3.64344L6.5802 6.35043H6.6087L7.79908 3.64344C7.80738 3.62103 7.82298 3.602 7.84344 3.58936C7.8639 3.57673 7.88802 3.57122 7.912 3.5737H8.7362C8.7456 3.57312 8.75501 3.57452 8.76381 3.57782C8.77261 3.58113 8.7806 3.58624 8.78724 3.59284C8.79389 3.59945 8.79904 3.60738 8.80235 3.6161C8.80565 3.62482 8.80705 3.63414 8.80643 3.64344V8.24813C8.80704 8.25743 8.80564 8.26677 8.80233 8.27551C8.79902 8.28424 8.79388 8.29218 8.78724 8.2988C8.7806 8.30544 8.77262 8.31058 8.76382 8.31393C8.75502 8.31727 8.74561 8.31873 8.7362 8.3182H7.93995C7.93054 8.3187 7.92114 8.31724 7.91235 8.31389C7.90356 8.31055 7.8956 8.30539 7.88897 8.29877C7.88233 8.29214 7.8772 8.28421 7.8739 8.27548C7.87058 8.26676 7.86918 8.25743 7.86977 8.24813V5.57605H7.84149L6.95383 7.57819C6.94445 7.60576 6.92628 7.62956 6.90203 7.64598C6.87779 7.6624 6.8488 7.67055 6.81945 7.6692H6.33343C6.30422 7.67043 6.27539 7.66222 6.25128 7.64581C6.22719 7.62939 6.20914 7.60565 6.19985 7.57819Z" fill="#171717"/>
<path d="M9.52429 8.31848H12.6455C12.6549 8.319 12.6644 8.31755 12.6732 8.3142C12.6819 8.31087 12.69 8.30572 12.6967 8.2991C12.7032 8.29248 12.7085 8.28454 12.7118 8.2758C12.7152 8.26707 12.7166 8.25773 12.716 8.2484V7.47398C12.7166 7.46467 12.7152 7.45536 12.7118 7.44665C12.7083 7.43793 12.7032 7.43003 12.6965 7.42344C12.6898 7.41686 12.6819 7.41174 12.673 7.40843C12.6643 7.40511 12.6549 7.40368 12.6455 7.40422H10.5319C10.5261 7.40504 10.5202 7.40452 10.5147 7.4027C10.5092 7.40089 10.5042 7.39782 10.5001 7.39374C10.496 7.38968 10.4929 7.38472 10.491 7.37926C10.4892 7.37379 10.4887 7.36798 10.4895 7.36228V3.64372C10.4901 3.63441 10.4887 3.62509 10.4854 3.61636C10.4821 3.60764 10.4769 3.59971 10.4702 3.59311C10.4636 3.58651 10.4556 3.58139 10.4468 3.57809C10.438 3.57479 10.4285 3.57339 10.4191 3.57398H9.52429C9.5149 3.57342 9.50549 3.57482 9.49669 3.57813C9.48789 3.58143 9.47989 3.58655 9.47323 3.59314C9.46658 3.59973 9.46142 3.60766 9.4581 3.61637C9.45476 3.6251 9.45335 3.63441 9.45393 3.64372V8.2484C9.45336 8.25771 9.45478 8.26705 9.45811 8.27578C9.46143 8.28451 9.46659 8.29245 9.47324 8.29908C9.47989 8.3057 9.48786 8.31084 9.49666 8.31419C9.50546 8.31754 9.51488 8.319 9.52429 8.31848Z" fill="#171717"/>
<path d="M15.3149 5.46454L15.0614 5.42969C14.5119 5.35312 14.3146 5.17874 14.3146 4.90655C14.3146 4.60632 14.5329 4.39031 14.9557 4.39031C15.3503 4.39031 15.7024 4.51574 16.0688 4.75311C16.0766 4.75821 16.0855 4.76171 16.0948 4.76339C16.104 4.76508 16.1135 4.76493 16.1226 4.76293C16.1318 4.76094 16.1405 4.75714 16.1482 4.75179C16.1559 4.74643 16.1623 4.7396 16.1673 4.73171L16.5972 4.09694C16.6324 4.04802 16.6253 4.02042 16.5834 3.99244C16.1814 3.68536 15.5897 3.49707 14.9557 3.49707C13.9199 3.49707 13.2578 4.07619 13.2578 4.94824C13.2578 5.7855 13.8001 6.23888 14.7727 6.37157L15.0263 6.40627C15.5969 6.48308 15.7658 6.65768 15.7658 6.9368C15.7658 7.2714 15.4841 7.50186 14.9839 7.50186C14.4767 7.50186 14.0471 7.26468 13.7299 7.01349C13.7227 7.00651 13.7142 7.00109 13.7048 6.99761C13.6954 6.99413 13.6854 6.99267 13.6754 6.99332C13.6655 6.99397 13.6557 6.99672 13.6468 7.00138C13.6381 7.00603 13.6303 7.01251 13.6242 7.02035L13.0887 7.62742C13.0742 7.6443 13.0667 7.66606 13.0681 7.68819C13.0694 7.71031 13.0793 7.73108 13.0957 7.74616C13.4691 8.1021 14.1945 8.39486 14.9418 8.39486C16.1814 8.39486 16.823 7.76 16.823 6.90201C16.823 6.04362 16.3014 5.59718 15.3149 5.46454Z" fill="#171717"/>
<path d="M26.6905 1.92482L26.6903 1.38H2.15037L2.15034 1.92482C2.15034 1.92482 2.14947 11.1059 2.14947 11.1606C2.14385 14.8174 3.34872 18.3752 5.57958 21.2892C5.61423 21.3344 5.64963 21.379 5.68468 21.4238L2.4638 24.6136L3.24192 25.384L6.38844 22.2681C7.28588 23.2759 8.30183 24.1738 9.41466 24.9427C10.8952 25.967 12.5323 26.7493 14.2634 27.2596L14.4204 27.3058L14.5773 27.2596C16.3084 26.7493 17.9456 25.967 19.426 24.9427C20.8899 23.9316 22.1842 22.6986 23.2612 21.2892C25.4921 18.3752 26.6969 14.8174 26.6913 11.1606C26.6913 11.1059 26.6905 1.92482 26.6905 1.92482ZM6.45694 20.6313C4.37082 17.9067 3.24428 14.5799 3.24993 11.1606C3.24993 11.114 3.25055 4.44463 3.25074 2.46975H24.8247L6.46917 20.647C6.46515 20.6418 6.46097 20.6366 6.45694 20.6313ZM24.7421 16.2428C24.1974 17.8208 23.4012 19.3023 22.3838 20.6313C21.3763 21.9498 20.1657 23.1031 18.7963 24.049C17.4573 24.9755 15.9811 25.6903 14.4204 26.168C12.8597 25.6903 11.3834 24.9755 10.0444 24.049C8.9846 23.3167 8.01882 22.4593 7.16839 21.4957L25.59 3.25293C25.5903 5.7986 25.5908 11.119 25.5908 11.1606C25.5929 12.8895 25.306 14.6066 24.7421 16.2428Z" fill="#171717"/>
</g>
<defs>
<clipPath id="clip0_1_1637">
<rect width="28" height="29" fill="white"/>
</clipPath>
</defs>
</svg>
