<svg width="45" height="47" viewBox="0 0 45 47" fill="none" xmlns="http://www.w3.org/2000/svg">
<path fill-rule="evenodd" clip-rule="evenodd" d="M12.106 15.3419C13.0202 15.3419 13.7622 16.0979 13.7622 17.0294C13.7622 17.9609 13.0202 18.7169 12.106 18.7169H10.0456C6.47031 18.7169 3.56415 21.6779 3.56415 25.3184V36.2871C3.56415 39.9299 6.47031 42.8909 10.0456 42.8909H34.6244C38.1974 42.8909 41.1058 39.9299 41.1058 36.2871V25.2981C41.1058 21.6689 38.2085 18.7169 34.6486 18.7169H32.5662C31.6519 18.7169 30.9099 17.9609 30.9099 17.0294C30.9099 16.0979 31.6519 15.3419 32.5662 15.3419H34.6486C40.0348 15.3419 44.4183 19.8081 44.4183 25.2981V36.2871C44.4183 41.7906 40.0237 46.2659 34.6244 46.2659H10.0456C4.64623 46.2659 0.251648 41.7906 0.251648 36.2871V25.3184C0.251648 19.8171 4.64623 15.3419 10.0456 15.3419H12.106ZM23.5067 0.553979L29.9462 7.14198C30.5911 7.80348 30.5888 8.86998 29.9418 9.52698C29.2926 10.184 28.2458 10.184 27.601 9.52248L23.989 5.82967L23.9903 30.5224H20.6778L20.6765 5.82967L17.0694 9.52248C16.747 9.85548 16.3208 10.0197 15.8968 10.0197C15.475 10.0197 15.051 9.85548 14.7286 9.52698C14.0816 8.86998 14.0771 7.80348 14.7242 7.14198L21.1615 0.553979C21.782 -0.0827715 22.8862 -0.0827715 23.5067 0.553979Z" fill="white"/>
</svg>
